<svg xmlns="http://www.w3.org/2000/svg" xmlns:xlink="http://www.w3.org/1999/xlink" width="1120" zoomAndPan="magnify" viewBox="0 0 840 149.999998" height="200" preserveAspectRatio="xMidYMid meet" version="1.0"><defs><g/><clipPath id="6605fcf042"><path d="M 64.515625 54.070312 L 145.515625 54.070312 L 145.515625 114 L 64.515625 114 Z M 64.515625 54.070312 " clip-rule="nonzero"/></clipPath><clipPath id="3f2fb02247"><path d="M 92.554688 90 L 95 90 L 95 93 L 92.554688 93 Z M 92.554688 90 " clip-rule="nonzero"/></clipPath><clipPath id="cedd6d8425"><path d="M 104 88.878906 L 107 88.878906 L 107 91 L 104 91 Z M 104 88.878906 " clip-rule="nonzero"/></clipPath><clipPath id="419a89441b"><path d="M 104 110 L 107 110 L 107 112.128906 L 104 112.128906 Z M 104 110 " clip-rule="nonzero"/></clipPath><clipPath id="43bfdf9bde"><path d="M 115 90 L 117.304688 90 L 117.304688 93 L 115 93 Z M 115 90 " clip-rule="nonzero"/></clipPath><clipPath id="76e30563d0"><path d="M 92.554688 108 L 95 108 L 95 111 L 92.554688 111 Z M 92.554688 108 " clip-rule="nonzero"/></clipPath><clipPath id="098cb8d591"><path d="M 115 108 L 117.304688 108 L 117.304688 111 L 115 111 Z M 115 108 " clip-rule="nonzero"/></clipPath><clipPath id="c9c2d3f671"><path d="M 92.554688 99 L 94 99 L 94 106 L 92.554688 106 Z M 92.554688 99 " clip-rule="nonzero"/></clipPath><clipPath id="ae03322746"><path d="M 741 41 L 764 41 L 764 115 L 741 115 Z M 741 41 " clip-rule="nonzero"/></clipPath><clipPath id="e7c40eaec6"><path d="M 794.851562 78.554688 L 752.425781 120.980469 L 710 78.554688 L 752.425781 36.125 Z M 794.851562 78.554688 " clip-rule="nonzero"/></clipPath><clipPath id="e17450a696"><path d="M 794.851562 78.554688 L 752.425781 120.980469 L 710 78.554688 L 752.425781 36.125 Z M 794.851562 78.554688 " clip-rule="nonzero"/></clipPath></defs><g fill="#00bf63" fill-opacity="1"><g transform="translate(0.000007, 113.494715)"><g><path d="M 13.328125 0.121094 C 18.28125 0.121094 20.785156 -2.382812 20.785156 -7.335938 L 20.785156 -48.785156 L 37.902344 -48.785156 C 42.855469 -48.785156 45.363281 -46.28125 45.363281 -41.265625 L 45.363281 -7.335938 C 45.363281 -2.382812 47.808594 0.121094 52.699219 0.121094 C 57.589844 0.121094 60.035156 -2.324219 60.035156 -7.214844 L 60.035156 -40.960938 C 60.035156 -55.9375 52.699219 -63.460938 38.027344 -63.460938 L 20.785156 -63.460938 L 20.785156 -75.6875 C 20.785156 -80.636719 18.339844 -83.144531 13.449219 -83.144531 C 8.558594 -83.144531 6.113281 -80.699219 6.113281 -75.871094 L 6.113281 -7.335938 C 6.113281 -2.382812 8.496094 0.121094 13.328125 0.121094 Z M 13.328125 0.121094 "/></g></g></g><g fill="#00bf63" fill-opacity="1"><g transform="translate(64.260444, 113.494715)"><g/></g></g><g fill="#00bf63" fill-opacity="1"><g transform="translate(77.666133, 113.494715)"><g/></g></g><g fill="#00bf63" fill-opacity="1"><g transform="translate(91.071821, 113.494715)"><g/></g></g><g fill="#00bf63" fill-opacity="1"><g transform="translate(104.477509, 113.494715)"><g/></g></g><g fill="#00bf63" fill-opacity="1"><g transform="translate(117.883199, 113.494715)"><g/></g></g><g fill="#00bf63" fill-opacity="1"><g transform="translate(131.288888, 113.494715)"><g/></g></g><g fill="#00bf63" fill-opacity="1"><g transform="translate(144.6909, 113.494715)"><g><path d="M 55.023438 -44.019531 L 55.023438 -56.183594 C 55.023438 -61.011719 52.578125 -63.398438 47.6875 -63.398438 L 28.121094 -63.460938 C 13.449219 -63.460938 6.113281 -55.9375 6.113281 -40.960938 L 6.113281 -7.214844 C 6.113281 -2.324219 8.558594 0.121094 13.449219 0.121094 C 18.339844 0.121094 20.785156 -2.382812 20.785156 -7.335938 L 20.785156 -41.265625 C 20.785156 -46.28125 23.292969 -48.785156 28.246094 -48.785156 L 40.351562 -48.785156 L 40.351562 -44.019531 C 40.351562 -39.066406 42.855469 -36.558594 47.808594 -36.558594 C 52.636719 -36.558594 55.023438 -39.066406 55.023438 -44.019531 Z M 55.023438 -44.019531 "/></g></g></g><g fill="#00bf63" fill-opacity="1"><g transform="translate(204.00944, 113.494715)"><g><path d="M 13.570312 -63.582031 C 8.621094 -63.460938 6.113281 -61.011719 6.113281 -56.183594 L 6.113281 -7.398438 C 6.113281 -2.445312 8.496094 0 13.328125 0 C 18.28125 0 20.785156 -2.445312 20.785156 -7.398438 L 20.785156 -48.785156 L 32.890625 -48.785156 C 37.84375 -48.785156 40.351562 -46.28125 40.351562 -41.265625 L 40.351562 -7.335938 C 40.351562 -2.382812 42.796875 0.121094 47.6875 0.121094 C 52.578125 0.121094 55.023438 -2.324219 55.023438 -7.214844 L 54.898438 -48.785156 L 67.128906 -48.785156 C 72.078125 -48.785156 74.585938 -46.28125 74.585938 -41.265625 L 74.585938 -7.335938 C 74.585938 -2.382812 77.03125 0.121094 81.921875 0.121094 C 86.8125 0.121094 89.257812 -2.324219 89.257812 -7.214844 L 89.257812 -40.960938 C 89.257812 -55.9375 81.921875 -63.460938 67.25 -63.460938 Z M 13.570312 -63.582031 "/></g></g></g><g fill="#00bf63" fill-opacity="1"><g transform="translate(297.502782, 113.494715)"><g><path d="M 6.113281 -41.449219 L 6.113281 -22.007812 C 6.113281 -7.335938 13.390625 0 28 0 L 38.027344 0 C 52.699219 0 60.035156 -7.519531 60.035156 -22.496094 L 60.035156 -41.511719 C 60.035156 -56.246094 52.636719 -63.582031 37.902344 -63.582031 L 28.183594 -63.582031 C 13.449219 -63.582031 6.113281 -56.183594 6.113281 -41.449219 Z M 37.902344 -48.785156 C 42.855469 -48.785156 45.363281 -46.402344 45.363281 -41.695312 L 45.363281 -22.191406 C 45.363281 -17.179688 42.855469 -14.671875 37.902344 -14.671875 L 28 -14.671875 C 23.171875 -14.671875 20.785156 -17.179688 20.785156 -22.191406 L 20.785156 -41.511719 C 20.785156 -46.339844 23.171875 -48.785156 28 -48.785156 Z M 37.902344 -48.785156 "/></g></g></g><g fill="#00bf63" fill-opacity="1"><g transform="translate(361.7733, 113.494715)"><g><path d="M 13.328125 0 C 18.28125 0 20.785156 -2.445312 20.785156 -7.398438 L 20.785156 -48.785156 L 37.902344 -48.785156 C 42.855469 -48.785156 45.363281 -46.28125 45.363281 -41.265625 L 45.363281 -7.335938 C 45.363281 -2.382812 47.808594 0.121094 52.699219 0.121094 C 57.589844 0.121094 60.035156 -2.324219 60.035156 -7.214844 L 60.035156 -40.960938 C 60.035156 -55.9375 52.699219 -63.460938 38.027344 -63.460938 L 13.449219 -63.398438 C 8.558594 -63.398438 6.113281 -61.011719 6.113281 -56.183594 L 6.113281 -7.398438 C 6.113281 -2.445312 8.496094 0 13.328125 0 Z M 13.328125 0 "/></g></g></g><g fill="#00bf63" fill-opacity="1"><g transform="translate(426.043818, 113.494715)"><g><path d="M 52.820312 -58.691406 C 47.871094 -58.691406 45.363281 -56.246094 45.363281 -51.292969 L 45.363281 -9.78125 L 28.246094 -9.78125 C 23.292969 -9.78125 20.785156 -12.289062 20.785156 -17.363281 L 20.785156 -51.292969 C 20.785156 -56.246094 18.339844 -58.691406 13.449219 -58.691406 C 8.558594 -58.691406 6.113281 -56.246094 6.113281 -51.355469 L 6.113281 -17.605469 C 6.113281 -2.628906 13.449219 4.890625 28.121094 4.890625 L 45.363281 4.890625 C 45.363281 8.316406 43.589844 10.027344 40.105469 9.964844 L 22.621094 9.964844 C 17.914062 9.964844 15.589844 12.410156 15.652344 17.242188 C 15.710938 22.132812 18.035156 24.578125 22.742188 24.578125 L 38.027344 24.578125 C 52.699219 24.578125 60.035156 17.363281 60.035156 2.933594 L 60.035156 -51.292969 C 60.035156 -56.246094 57.652344 -58.691406 52.820312 -58.691406 Z M 52.820312 -58.691406 "/></g></g></g><g clip-path="url(#6605fcf042)"><path fill="#ffffff" d="M 136.839844 86.496094 L 136.839844 85.894531 C 136.839844 77.421875 133.523438 69.445312 127.511719 63.449219 C 121.503906 57.453125 113.507812 54.140625 105.015625 54.140625 C 87.457031 54.140625 73.191406 68.402344 73.191406 85.894531 L 73.191406 86.496094 C 68.097656 88.660156 64.515625 93.691406 64.515625 99.558594 C 64.515625 107.378906 70.890625 113.742188 78.730469 113.742188 L 85.785156 113.742188 C 87.953125 113.742188 89.703125 111.992188 89.703125 109.828125 L 89.703125 89.285156 C 89.703125 87.148438 87.953125 85.375 85.785156 85.375 L 81.054688 85.375 C 81.34375 72.417969 91.976562 61.960938 105.015625 61.960938 C 111.417969 61.960938 117.429688 64.464844 121.972656 68.976562 C 126.390625 73.382812 128.847656 79.195312 128.976562 85.375 L 124.246094 85.375 C 122.078125 85.375 120.328125 87.148438 120.328125 89.285156 L 120.328125 109.828125 C 120.328125 111.992188 122.078125 113.742188 124.246094 113.742188 L 131.300781 113.742188 C 139.140625 113.742188 145.515625 107.378906 145.515625 99.558594 C 145.515625 93.691406 141.9375 88.660156 136.839844 86.496094 Z M 136.839844 86.496094 " fill-opacity="1" fill-rule="nonzero"/></g><g clip-path="url(#3f2fb02247)"><path fill="#ffffff" d="M 94.105469 91.398438 L 93.910156 91.398438 L 93.910156 91.203125 C 93.910156 90.992188 93.738281 90.816406 93.523438 90.816406 C 93.3125 90.816406 93.136719 90.992188 93.136719 91.203125 L 93.136719 91.398438 L 92.945312 91.398438 C 92.734375 91.398438 92.558594 91.574219 92.558594 91.785156 C 92.558594 92 92.734375 92.171875 92.945312 92.171875 L 93.136719 92.171875 L 93.136719 92.367188 C 93.136719 92.582031 93.3125 92.753906 93.523438 92.753906 C 93.738281 92.753906 93.910156 92.582031 93.910156 92.367188 L 93.910156 92.171875 L 94.105469 92.171875 C 94.316406 92.171875 94.492188 92 94.492188 91.785156 C 94.492188 91.574219 94.316406 91.398438 94.105469 91.398438 Z M 94.105469 91.398438 " fill-opacity="1" fill-rule="nonzero"/></g><g clip-path="url(#cedd6d8425)"><path fill="#ffffff" d="M 105.703125 89.460938 L 105.507812 89.460938 L 105.507812 89.265625 C 105.507812 89.054688 105.335938 88.878906 105.121094 88.878906 C 104.910156 88.878906 104.734375 89.054688 104.734375 89.265625 L 104.734375 89.460938 L 104.542969 89.460938 C 104.328125 89.460938 104.15625 89.636719 104.15625 89.847656 C 104.15625 90.0625 104.328125 90.234375 104.542969 90.234375 L 104.734375 90.234375 L 104.734375 90.429688 C 104.734375 90.644531 104.910156 90.816406 105.121094 90.816406 C 105.335938 90.816406 105.507812 90.644531 105.507812 90.429688 L 105.507812 90.234375 L 105.703125 90.234375 C 105.914062 90.234375 106.089844 90.0625 106.089844 89.847656 C 106.089844 89.636719 105.914062 89.460938 105.703125 89.460938 Z M 105.703125 89.460938 " fill-opacity="1" fill-rule="nonzero"/></g><g clip-path="url(#419a89441b)"><path fill="#ffffff" d="M 105.703125 110.773438 L 105.507812 110.773438 L 105.507812 110.578125 C 105.507812 110.367188 105.335938 110.191406 105.121094 110.191406 C 104.910156 110.191406 104.734375 110.367188 104.734375 110.578125 L 104.734375 110.773438 L 104.542969 110.773438 C 104.328125 110.773438 104.15625 110.949219 104.15625 111.160156 C 104.15625 111.375 104.328125 111.546875 104.542969 111.546875 L 104.734375 111.546875 L 104.734375 111.742188 C 104.734375 111.957031 104.910156 112.128906 105.121094 112.128906 C 105.335938 112.128906 105.507812 111.957031 105.507812 111.742188 L 105.507812 111.546875 L 105.703125 111.546875 C 105.914062 111.546875 106.089844 111.375 106.089844 111.160156 C 106.089844 110.949219 105.914062 110.773438 105.703125 110.773438 Z M 105.703125 110.773438 " fill-opacity="1" fill-rule="nonzero"/></g><g clip-path="url(#43bfdf9bde)"><path fill="#ffffff" d="M 115.753906 92.171875 L 115.945312 92.171875 L 115.945312 92.367188 C 115.945312 92.582031 116.121094 92.753906 116.332031 92.753906 C 116.546875 92.753906 116.71875 92.582031 116.71875 92.367188 L 116.71875 92.171875 L 116.914062 92.171875 C 117.125 92.171875 117.300781 92 117.300781 91.785156 C 117.300781 91.574219 117.125 91.398438 116.914062 91.398438 L 116.71875 91.398438 L 116.71875 91.203125 C 116.71875 90.992188 116.546875 90.816406 116.332031 90.816406 C 116.121094 90.816406 115.945312 90.992188 115.945312 91.203125 L 115.945312 91.398438 L 115.753906 91.398438 C 115.539062 91.398438 115.367188 91.574219 115.367188 91.785156 C 115.367188 92 115.539062 92.171875 115.753906 92.171875 Z M 115.753906 92.171875 " fill-opacity="1" fill-rule="nonzero"/></g><g clip-path="url(#76e30563d0)"><path fill="#ffffff" d="M 94.105469 108.835938 L 93.910156 108.835938 L 93.910156 108.640625 C 93.910156 108.429688 93.738281 108.253906 93.523438 108.253906 C 93.3125 108.253906 93.136719 108.429688 93.136719 108.640625 L 93.136719 108.835938 L 92.945312 108.835938 C 92.734375 108.835938 92.558594 109.011719 92.558594 109.222656 C 92.558594 109.4375 92.734375 109.609375 92.945312 109.609375 L 93.136719 109.609375 L 93.136719 109.804688 C 93.136719 110.019531 93.3125 110.191406 93.523438 110.191406 C 93.738281 110.191406 93.910156 110.019531 93.910156 109.804688 L 93.910156 109.609375 L 94.105469 109.609375 C 94.316406 109.609375 94.492188 109.4375 94.492188 109.222656 C 94.492188 109.011719 94.316406 108.835938 94.105469 108.835938 Z M 94.105469 108.835938 " fill-opacity="1" fill-rule="nonzero"/></g><g clip-path="url(#098cb8d591)"><path fill="#ffffff" d="M 116.914062 108.835938 L 116.71875 108.835938 L 116.71875 108.640625 C 116.71875 108.429688 116.546875 108.253906 116.332031 108.253906 C 116.121094 108.253906 115.945312 108.429688 115.945312 108.640625 L 115.945312 108.835938 L 115.753906 108.835938 C 115.539062 108.835938 115.367188 109.011719 115.367188 109.222656 C 115.367188 109.4375 115.539062 109.609375 115.753906 109.609375 L 115.945312 109.609375 L 115.945312 109.804688 C 115.945312 110.019531 116.121094 110.191406 116.332031 110.191406 C 116.546875 110.191406 116.71875 110.019531 116.71875 109.804688 L 116.71875 109.609375 L 116.914062 109.609375 C 117.125 109.609375 117.300781 109.4375 117.300781 109.222656 C 117.300781 109.011719 117.125 108.835938 116.914062 108.835938 Z M 116.914062 108.835938 " fill-opacity="1" fill-rule="nonzero"/></g><path fill="#ffffff" d="M 97.199219 92.753906 C 96.984375 92.753906 96.8125 92.929688 96.8125 93.140625 L 96.8125 103.992188 C 96.8125 104.207031 96.984375 104.378906 97.199219 104.378906 C 97.410156 104.378906 97.582031 104.207031 97.582031 103.992188 L 97.582031 93.140625 C 97.582031 92.929688 97.410156 92.753906 97.199219 92.753906 Z M 97.199219 92.753906 " fill-opacity="1" fill-rule="nonzero"/><path fill="#ffffff" d="M 101.0625 92.753906 C 100.851562 92.753906 100.675781 92.929688 100.675781 93.140625 L 100.675781 103.992188 C 100.675781 104.207031 100.851562 104.378906 101.0625 104.378906 C 101.277344 104.378906 101.449219 104.207031 101.449219 103.992188 L 101.449219 93.140625 C 101.449219 92.929688 101.277344 92.753906 101.0625 92.753906 Z M 101.0625 92.753906 " fill-opacity="1" fill-rule="nonzero"/><path fill="#ffffff" d="M 102.996094 94.691406 C 102.785156 94.691406 102.609375 94.867188 102.609375 95.078125 L 102.609375 105.929688 C 102.609375 106.144531 102.785156 106.316406 102.996094 106.316406 C 103.207031 106.316406 103.382812 106.144531 103.382812 105.929688 L 103.382812 95.078125 C 103.382812 94.867188 103.207031 94.691406 102.996094 94.691406 Z M 102.996094 94.691406 " fill-opacity="1" fill-rule="nonzero"/><path fill="#ffffff" d="M 99.128906 95.273438 C 98.917969 95.273438 98.742188 95.449219 98.742188 95.660156 L 98.742188 101.472656 C 98.742188 101.6875 98.917969 101.859375 99.128906 101.859375 C 99.34375 101.859375 99.515625 101.6875 99.515625 101.472656 L 99.515625 95.660156 C 99.515625 95.449219 99.34375 95.273438 99.128906 95.273438 Z M 99.128906 95.273438 " fill-opacity="1" fill-rule="nonzero"/><path fill="#ffffff" d="M 95.265625 96.628906 C 95.050781 96.628906 94.878906 96.804688 94.878906 97.015625 L 94.878906 107.867188 C 94.878906 108.082031 95.050781 108.253906 95.265625 108.253906 C 95.476562 108.253906 95.652344 108.082031 95.652344 107.867188 L 95.652344 97.015625 C 95.652344 96.804688 95.476562 96.628906 95.265625 96.628906 Z M 95.265625 96.628906 " fill-opacity="1" fill-rule="nonzero"/><g clip-path="url(#c9c2d3f671)"><path fill="#ffffff" d="M 93.71875 105.347656 L 93.71875 99.535156 C 93.71875 99.324219 93.542969 99.148438 93.332031 99.148438 C 93.117188 99.148438 92.945312 99.324219 92.945312 99.535156 L 92.945312 105.347656 C 92.945312 105.5625 93.117188 105.734375 93.332031 105.734375 C 93.542969 105.734375 93.71875 105.5625 93.71875 105.347656 Z M 93.71875 105.347656 " fill-opacity="1" fill-rule="nonzero"/></g><path fill="#ffffff" d="M 114.59375 96.628906 C 114.378906 96.628906 114.207031 96.804688 114.207031 97.015625 L 114.207031 107.867188 C 114.207031 108.082031 114.378906 108.253906 114.59375 108.253906 C 114.804688 108.253906 114.980469 108.082031 114.980469 107.867188 L 114.980469 97.015625 C 114.980469 96.804688 114.804688 96.628906 114.59375 96.628906 Z M 114.59375 96.628906 " fill-opacity="1" fill-rule="nonzero"/><path fill="#ffffff" d="M 116.140625 99.535156 L 116.140625 105.347656 C 116.140625 105.5625 116.3125 105.734375 116.527344 105.734375 C 116.738281 105.734375 116.914062 105.5625 116.914062 105.347656 L 116.914062 99.535156 C 116.914062 99.324219 116.738281 99.148438 116.527344 99.148438 C 116.3125 99.148438 116.140625 99.324219 116.140625 99.535156 Z M 116.140625 99.535156 " fill-opacity="1" fill-rule="nonzero"/><path fill="#ffffff" d="M 105.316406 103.410156 L 105.316406 97.597656 C 105.316406 97.386719 105.140625 97.210938 104.929688 97.210938 C 104.714844 97.210938 104.542969 97.386719 104.542969 97.597656 L 104.542969 103.410156 C 104.542969 103.625 104.714844 103.796875 104.929688 103.796875 C 105.140625 103.796875 105.316406 103.625 105.316406 103.410156 Z M 105.316406 103.410156 " fill-opacity="1" fill-rule="nonzero"/><path fill="#ffffff" d="M 108.792969 92.753906 C 108.582031 92.753906 108.40625 92.929688 108.40625 93.140625 L 108.40625 103.992188 C 108.40625 104.207031 108.582031 104.378906 108.792969 104.378906 C 109.007812 104.378906 109.179688 104.207031 109.179688 103.992188 L 109.179688 93.140625 C 109.179688 92.929688 109.007812 92.753906 108.792969 92.753906 Z M 108.792969 92.753906 " fill-opacity="1" fill-rule="nonzero"/><path fill="#ffffff" d="M 110.726562 95.273438 C 110.515625 95.273438 110.339844 95.449219 110.339844 95.660156 L 110.339844 101.472656 C 110.339844 101.6875 110.515625 101.859375 110.726562 101.859375 C 110.941406 101.859375 111.113281 101.6875 111.113281 101.472656 L 111.113281 95.660156 C 111.113281 95.449219 110.941406 95.273438 110.726562 95.273438 Z M 110.726562 95.273438 " fill-opacity="1" fill-rule="nonzero"/><path fill="#ffffff" d="M 106.863281 94.691406 C 106.648438 94.691406 106.476562 94.867188 106.476562 95.078125 L 106.476562 105.929688 C 106.476562 106.144531 106.648438 106.316406 106.863281 106.316406 C 107.074219 106.316406 107.25 106.144531 107.25 105.929688 L 107.25 95.078125 C 107.25 94.867188 107.074219 94.691406 106.863281 94.691406 Z M 106.863281 94.691406 " fill-opacity="1" fill-rule="nonzero"/><path fill="#ffffff" d="M 112.660156 92.753906 C 112.449219 92.753906 112.273438 92.929688 112.273438 93.140625 L 112.273438 103.992188 C 112.273438 104.207031 112.449219 104.378906 112.660156 104.378906 C 112.871094 104.378906 113.046875 104.207031 113.046875 103.992188 L 113.046875 93.140625 C 113.046875 92.929688 112.871094 92.753906 112.660156 92.753906 Z M 112.660156 92.753906 " fill-opacity="1" fill-rule="nonzero"/><g fill="#ffffff" fill-opacity="1"><g transform="translate(513.083353, 113.480531)"><g><path d="M 59.636719 -7.316406 L 59.636719 -56.039062 C 59.636719 -60.855469 57.195312 -63.234375 52.320312 -63.234375 L 28.050781 -63.296875 C 13.414062 -63.296875 6.097656 -55.792969 6.097656 -40.855469 L 6.097656 -7.195312 C 6.097656 -2.316406 8.535156 0.121094 13.414062 0.121094 C 18.292969 0.121094 20.734375 -2.378906 20.734375 -7.316406 L 20.792969 -19.511719 L 45 -19.453125 L 45 -7.316406 C 45 -2.378906 47.5 0.121094 52.5 0.121094 C 57.257812 0.121094 59.636719 -2.378906 59.636719 -7.316406 Z M 20.734375 -34.148438 L 20.734375 -41.160156 C 20.734375 -46.160156 23.234375 -48.660156 28.171875 -48.660156 L 45 -48.660156 L 45 -34.148438 Z M 20.734375 -34.148438 "/></g></g></g><g fill="#ffffff" fill-opacity="1"><g transform="translate(576.559641, 113.480531)"><g><path d="M 59.878906 -7.316406 L 59.878906 -75.671875 C 59.878906 -80.492188 57.441406 -82.929688 52.5625 -82.929688 C 47.683594 -82.929688 45.246094 -80.429688 45.246094 -75.492188 L 45.246094 -63.296875 L 28.050781 -63.296875 C 13.414062 -63.296875 6.097656 -55.792969 6.097656 -40.855469 L 6.097656 -21.828125 C 6.097656 -7.195312 13.476562 0.121094 28.171875 0.121094 L 52.683594 0.121094 C 57.503906 0.121094 59.878906 -2.378906 59.878906 -7.316406 Z M 28.171875 -14.574219 C 23.234375 -14.574219 20.734375 -16.953125 20.734375 -21.648438 L 20.734375 -41.160156 C 20.734375 -46.160156 23.234375 -48.660156 28.171875 -48.660156 L 45.246094 -48.660156 L 45.246094 -14.574219 Z M 28.171875 -14.574219 "/></g></g></g><g fill="#ffffff" fill-opacity="1"><g transform="translate(640.03593, 113.480531)"><g><path d="M 13.535156 -63.417969 C 8.597656 -63.296875 6.097656 -60.855469 6.097656 -56.039062 L 6.097656 -7.378906 C 6.097656 -2.4375 8.476562 0 13.292969 0 C 18.230469 0 20.734375 -2.4375 20.734375 -7.378906 L 20.734375 -48.660156 L 32.804688 -48.660156 C 37.746094 -48.660156 40.246094 -46.160156 40.246094 -41.160156 L 40.246094 -7.316406 C 40.246094 -2.378906 42.683594 0.121094 47.5625 0.121094 C 52.441406 0.121094 54.878906 -2.316406 54.878906 -7.195312 L 54.757812 -48.660156 L 66.953125 -48.660156 C 71.894531 -48.660156 74.394531 -46.160156 74.394531 -41.160156 L 74.394531 -7.316406 C 74.394531 -2.378906 76.832031 0.121094 81.710938 0.121094 C 86.589844 0.121094 89.027344 -2.316406 89.027344 -7.195312 L 89.027344 -40.855469 C 89.027344 -55.792969 81.710938 -63.296875 67.074219 -63.296875 Z M 13.535156 -63.417969 "/></g></g></g><g fill="#ffffff" fill-opacity="1"><g transform="translate(732.657563, 113.480531)"><g/></g></g><g fill="#ffffff" fill-opacity="1"><g transform="translate(745.403382, 113.480531)"><g/></g></g><g fill="#ffffff" fill-opacity="1"><g transform="translate(758.149202, 113.480531)"><g/></g></g><g fill="#ffffff" fill-opacity="1"><g transform="translate(770.884123, 113.480531)"><g><path d="M 13.292969 0 C 18.230469 0 20.734375 -2.4375 20.734375 -7.378906 L 20.734375 -48.660156 L 37.804688 -48.660156 C 42.746094 -48.660156 45.246094 -46.160156 45.246094 -41.160156 L 45.246094 -7.316406 C 45.246094 -2.378906 47.683594 0.121094 52.5625 0.121094 C 57.441406 0.121094 59.878906 -2.316406 59.878906 -7.195312 L 59.878906 -40.855469 C 59.878906 -55.792969 52.5625 -63.296875 37.929688 -63.296875 L 13.414062 -63.234375 C 8.535156 -63.234375 6.097656 -60.855469 6.097656 -56.039062 L 6.097656 -7.378906 C 6.097656 -2.4375 8.476562 0 13.292969 0 Z M 13.292969 0 "/></g></g></g><g clip-path="url(#ae03322746)"><g clip-path="url(#e7c40eaec6)"><g clip-path="url(#e17450a696)"><path fill="#ffffff" d="M 755.183594 54.492188 L 750.035156 54.703125 L 747.277344 50.347656 L 749.671875 45.78125 L 754.816406 45.574219 L 757.574219 49.925781 Z M 753.65625 87.671875 C 753.035156 88.351562 751.984375 88.402344 751.300781 87.78125 C 750.957031 87.464844 750.757812 87.019531 750.757812 86.554688 L 750.761719 65.445312 C 750.765625 64.527344 751.519531 63.789062 752.441406 63.796875 C 753.347656 63.808594 754.082031 64.542969 754.09375 65.449219 L 754.09375 86.554688 C 754.09375 86.96875 753.9375 87.371094 753.65625 87.671875 Z M 759.746094 113.460938 C 764.058594 109.414062 764.277344 102.640625 760.234375 98.328125 C 759.484375 97.535156 758.621094 96.855469 757.667969 96.320312 C 756.824219 95.847656 756.308594 94.960938 756.308594 93.996094 L 756.308594 59.914062 C 756.308594 59.023438 756.746094 58.191406 757.488281 57.695312 C 761.664062 54.898438 762.785156 49.25 759.984375 45.070312 C 757.1875 40.894531 751.535156 39.78125 747.359375 42.574219 C 743.1875 45.375 742.070312 51.023438 744.863281 55.199219 C 745.523438 56.183594 746.375 57.035156 747.359375 57.695312 C 748.101562 58.191406 748.542969 59.023438 748.542969 59.914062 L 748.542969 93.996094 C 748.542969 94.960938 748.023438 95.847656 747.183594 96.320312 C 742.023438 99.214844 740.199219 105.746094 743.09375 110.894531 C 743.804688 112.164062 744.765625 113.269531 745.917969 114.148438 C 746.210938 114.375 746.628906 114.320312 746.851562 114.03125 C 746.941406 113.914062 746.992188 113.769531 746.992188 113.621094 L 746.988281 105.589844 C 746.988281 104.855469 747.585938 104.257812 748.324219 104.253906 L 756.527344 104.253906 C 757.261719 104.257812 757.859375 104.855469 757.859375 105.589844 L 757.855469 113.621094 C 757.859375 113.988281 758.160156 114.289062 758.523438 114.289062 C 758.671875 114.289062 758.816406 114.242188 758.929688 114.148438 C 759.21875 113.9375 759.488281 113.703125 759.746094 113.460938 " fill-opacity="1" fill-rule="nonzero"/></g></g></g></svg>